<svg width="76" height="75" viewBox="0 0 76 75" fill="none" xmlns="http://www.w3.org/2000/svg">
<path d="M35.3281 54.4746C34.7131 54.4746 34.2148 54.9731 34.2148 55.5879C34.2148 56.2027 34.7131 56.7012 35.3281 56.7012H40.6719C41.2869 56.7012 41.7852 56.2027 41.7852 55.5879C41.7852 54.9731 41.2869 54.4746 40.6719 54.4746H35.3281Z" fill="#FFB400"/>
<path d="M13.3594 37.188H20.7183C21.1678 38.3578 22.3002 39.1919 23.6264 39.1919C24.9525 39.1919 26.0849 38.3578 26.5344 37.188H28.0053C28.6202 37.188 29.1185 36.6895 29.1185 36.0747C29.1185 35.4599 28.6202 34.9614 28.0053 34.9614H26.5344C26.0849 33.7916 24.9525 32.9575 23.6264 32.9575C22.3002 32.9575 21.1678 33.7916 20.7183 34.9614H13.3594C12.7444 34.9614 12.2461 35.4599 12.2461 36.0747C12.2461 36.6895 12.7444 37.188 13.3594 37.188ZM23.6264 35.1841C24.1175 35.1841 24.517 35.5835 24.517 36.0747C24.517 36.5659 24.1175 36.9653 23.6264 36.9653C23.1352 36.9653 22.7357 36.5659 22.7357 36.0747C22.7357 35.5835 23.1352 35.1841 23.6264 35.1841Z" fill="#FFB400"/>
<path d="M13.3594 30.8052H14.7808C15.2303 31.975 16.3627 32.8091 17.6889 32.8091C19.015 32.8091 20.1474 31.975 20.5969 30.8052H28.0053C28.6202 30.8052 29.1185 30.3067 29.1185 29.6919C29.1185 29.0771 28.6202 28.5786 28.0053 28.5786H20.5969C20.1474 27.4088 19.015 26.5747 17.6889 26.5747C16.3627 26.5747 15.2303 27.4088 14.7808 28.5786H13.3594C12.7444 28.5786 12.2461 29.0771 12.2461 29.6919C12.2461 30.3067 12.7444 30.8052 13.3594 30.8052ZM17.6889 28.8013C18.18 28.8013 18.5795 29.2007 18.5795 29.6919C18.5795 30.1831 18.18 30.5825 17.6889 30.5825C17.1977 30.5825 16.7982 30.1831 16.7982 29.6919C16.7982 29.2007 17.1977 28.8013 17.6889 28.8013Z" fill="#FFB400"/>
<path d="M28.228 20.563C28.8429 20.563 29.3413 20.0646 29.3413 19.4497C29.3413 18.8349 28.8429 18.3364 28.228 18.3364C27.6132 18.3364 27.1147 18.8349 27.1147 19.4497C27.1147 20.0646 27.6132 20.563 28.228 20.563Z" fill="#FFB400"/>
<path d="M25.1602 20.563C25.775 20.563 26.2734 20.0646 26.2734 19.4497C26.2734 18.8349 25.775 18.3364 25.1602 18.3364C24.5453 18.3364 24.0469 18.8349 24.0469 19.4497C24.0469 20.0646 24.5453 20.563 25.1602 20.563Z" fill="#FFB400"/>
<path d="M22.0923 20.563C22.7071 20.563 23.2056 20.0646 23.2056 19.4497C23.2056 18.8349 22.7071 18.3364 22.0923 18.3364C21.4774 18.3364 20.979 18.8349 20.979 19.4497C20.979 20.0646 21.4774 20.563 22.0923 20.563Z" fill="#FFB400"/>
<path d="M72.6602 6.82508H72.2432L72.5542 6.51411C73.4856 5.58266 73.4856 4.06697 72.5542 3.13552L70.1171 0.698473C69.1857 -0.232824 67.6701 -0.232824 66.7385 0.698473L60.6124 6.82493H3.33984C1.49833 6.82493 0 8.32311 0 10.1648V56.3977C0 58.6486 1.83113 60.4797 4.08203 60.4797H30.4512V68.3551H25.0859C23.6537 68.3551 22.4883 69.5205 22.4883 70.9528V72.0651C22.4883 73.4974 23.6537 74.6628 25.0859 74.6628H50.9141C52.3463 74.6628 53.5117 73.4974 53.5117 72.0651V70.9528C53.5117 69.5205 52.3463 68.3551 50.9141 68.3551H45.5488V60.4797H57.4453C58.0603 60.4797 58.5586 59.9813 58.5586 59.3665C58.5586 58.7516 58.0603 58.2532 57.4453 58.2532H4.08203C3.05885 58.2532 2.22656 57.4209 2.22656 56.3977V53.1024H73.7734V56.3977C73.7734 57.4209 72.9411 58.2532 71.918 58.2532H62.6406C62.0257 58.2532 61.5273 58.7516 61.5273 59.3665C61.5273 59.9813 62.0257 60.4797 62.6406 60.4797H71.918C74.1689 60.4797 76 58.6486 76 56.3977V10.1649C76 8.32341 74.5017 6.82508 72.6602 6.82508ZM50.9141 70.5818C51.1188 70.5818 51.2852 70.7484 51.2852 70.9529V72.0653C51.2852 72.2698 51.1188 72.4364 50.9141 72.4364H25.0859C24.8812 72.4364 24.7148 72.2698 24.7148 72.0653V70.9529C24.7148 70.7484 24.8812 70.5818 25.0859 70.5818H50.9141ZM32.6778 60.48H43.3224V68.3554H32.6778V60.48ZM68.313 2.2731C68.3765 2.20971 68.4796 2.20986 68.5428 2.2731L70.9797 4.71C71.0431 4.77338 71.0431 4.87654 70.9797 4.93978L68.6544 7.26505L65.9877 4.59837L68.313 2.2731ZM64.4133 6.17285L67.0798 8.83953L66.3033 9.616L63.6368 6.94932L64.4133 6.17285ZM62.0623 8.5238L64.729 11.1905L51.555 24.3645L48.8883 21.6978L62.0623 8.5238ZM60.4141 18.702C61.9283 18.702 63.1602 19.9339 63.1602 21.4481C63.1602 22.9623 61.9283 24.1942 60.4141 24.1942C58.8999 24.1942 57.668 22.9623 57.668 21.4481C57.668 21.4304 57.6703 21.4134 57.6706 21.3957L60.3621 18.7047C60.3795 18.7044 60.3965 18.702 60.4141 18.702ZM49.6218 25.5802L46.3269 26.9259L47.6726 23.631L49.6218 25.5802ZM73.7734 50.8761H2.22656V10.1649C2.22656 9.55114 2.72591 9.05165 3.33984 9.05165H58.386L56.6884 10.7492H18.8516C18.2366 10.7492 17.7383 11.2476 17.7383 11.8625C17.7383 12.4773 18.2366 12.9757 18.8516 12.9757H54.462L46.6095 20.8287C46.3876 21.0525 46.2141 21.3138 46.0946 21.6062L43.6078 27.6945C43.3797 28.2537 43.5082 28.8909 43.9353 29.3178C44.2219 29.6045 44.6031 29.7565 44.9919 29.7565C45.1824 29.7565 45.3747 29.7199 45.5586 29.645L51.6468 27.1583C51.9309 27.0423 52.185 26.8742 52.4047 26.6612L55.7914 23.2749C56.521 25.1154 58.3171 26.4209 60.4142 26.4209C63.1562 26.4209 65.3869 24.1902 65.3869 21.4483C65.3869 19.3514 64.0817 17.5555 62.2415 16.8258L66.0918 12.9759H69.8493V46.9522H69.2593L65.2248 39.9642C64.9175 39.4316 64.2362 39.2492 63.704 39.5567C63.1716 39.8642 62.9892 40.545 63.2966 41.0775L66.6884 46.9522H51.1366L49.4686 44.0632L57.2445 30.595L60.6988 36.5782C61.0063 37.1106 61.6872 37.2932 62.2195 36.9857C62.752 36.6782 62.9344 35.9974 62.627 35.4649L58.9417 29.0819C58.5874 28.4683 57.953 28.102 57.2443 28.102C56.5357 28.102 55.9011 28.4683 55.5468 29.0819L48.1828 41.8367L38.7342 25.4714C38.3799 24.8577 37.7454 24.4914 37.0366 24.4914C36.3281 24.4914 35.6936 24.8577 35.3393 25.4714L32.829 29.8192V17.8859C32.829 16.4536 31.6636 15.2882 30.2314 15.2882H11.1328C9.70054 15.2882 8.53516 16.4536 8.53516 17.8859V42.2296C8.53516 43.2528 9.36744 44.0851 10.3906 44.0851H24.593L22.9376 46.9523H6.1508V12.9757H13.6562C14.2712 12.9757 14.7695 12.4773 14.7695 11.8625C14.7695 11.2476 14.2712 10.7492 13.6562 10.7492H5.77971C4.75653 10.7492 3.92424 11.5815 3.92424 12.6046V47.3231C3.92424 48.3463 4.75653 49.1786 5.77971 49.1786H70.2204C71.2436 49.1786 72.0759 48.3463 72.0759 47.3231V12.6046C72.0759 11.5815 71.2436 10.7492 70.2204 10.7492H68.3187L70.0165 9.05165H72.6602C73.2741 9.05165 73.7734 9.55114 73.7734 10.1649V50.8761ZM30.6029 24.0514V41.8583H10.7617V24.0514H30.6029ZM10.7617 21.8248V17.8856C10.7617 17.6811 10.9281 17.5145 11.1328 17.5145H30.2318C30.4365 17.5145 30.6029 17.6811 30.6029 17.8856V21.8248H10.7617ZM27.1641 44.0848H30.974C31.9972 44.0848 32.8295 43.2525 32.8295 42.2294V39.8711C33.1079 40.0047 33.418 40.077 33.7428 40.077C34.5028 40.077 35.1833 39.6839 35.5631 39.0259L37.4578 35.7444C37.5151 35.6453 37.6026 35.6243 37.6657 35.6243C37.7291 35.6243 37.8167 35.6453 37.8738 35.7444L39.0419 37.7675C39.4219 38.4258 40.1025 38.8187 40.8626 38.8187C41.6226 38.8187 42.3032 38.4258 42.6831 37.7676L42.9731 37.2653L48.5656 46.9519H25.5087L27.1641 44.0848ZM32.8295 36.1445V34.2721L37.0372 26.9842L41.6875 35.0387L40.8625 36.4676L39.802 34.631C39.3561 33.8587 38.5575 33.3976 37.6656 33.3976C36.7738 33.3976 35.9752 33.8587 35.5293 34.631L33.7424 37.7259L32.8295 36.1445Z" fill="#FFB400"/>
</svg>
